<svg width="20" height="20" viewBox="0 0 20 20" fill="none" xmlns="http://www.w3.org/2000/svg">
<circle cx="10" cy="10" r="10" fill="#444444"/>
<path d="M9.76807 14.0099H13.9541" stroke="#FFFCEC" stroke-linecap="round" stroke-linejoin="round"/>
<path d="M11.8601 6.33549C12.0452 6.15046 12.2961 6.04651 12.5578 6.04651C12.6874 6.04651 12.8157 6.07203 12.9354 6.12161C13.0551 6.1712 13.1639 6.24388 13.2555 6.33549C13.3471 6.42711 13.4198 6.53588 13.4694 6.65559C13.5189 6.7753 13.5445 6.9036 13.5445 7.03317C13.5445 7.16274 13.5189 7.29104 13.4694 7.41075C13.4198 7.53046 13.3471 7.63922 13.2555 7.73084L7.44152 13.5448L5.58105 14.0099L6.04617 12.1494L11.8601 6.33549Z" stroke="#FFFCEC" stroke-linecap="round" stroke-linejoin="round"/>
</svg>
