<svg width="20" height="20" viewBox="0 0 20 20" fill="none" xmlns="http://www.w3.org/2000/svg">
<circle cx="10" cy="10" r="10" fill="#444444"/>
<path d="M14.2289 6.70726C13.9846 6.48304 13.6944 6.30517 13.3751 6.18381C13.0558 6.06246 12.7136 6 12.3679 6C12.0223 6 11.6801 6.06246 11.3607 6.18381C11.0414 6.30517 10.7513 6.48304 10.507 6.70726L9.99987 7.17238L9.49277 6.70726C8.99921 6.25456 8.3298 6.00023 7.6318 6.00023C6.93381 6.00023 6.2644 6.25456 5.77084 6.70726C5.27728 7.15996 5 7.77395 5 8.41416C5 9.05438 5.27728 9.66837 5.77084 10.1211L6.27794 10.5862L9.99987 14L13.7218 10.5862L14.2289 10.1211C14.4734 9.89695 14.6673 9.63086 14.7996 9.33798C14.9319 9.0451 15 8.73119 15 8.41416C15 8.09714 14.9319 7.78322 14.7996 7.49035C14.6673 7.19747 14.4734 6.93137 14.2289 6.70726V6.70726Z" stroke="#FFFCEC" stroke-linecap="round" stroke-linejoin="round"/>
</svg>
